<?xml version="1.0" encoding="UTF-8"?>
<svg id="Layer_1" xmlns="http://www.w3.org/2000/svg" xmlns:xlink="http://www.w3.org/1999/xlink" version="1.1" viewBox="0 0 903 388.4">
  <!-- Generator: Adobe Illustrator 29.2.1, SVG Export Plug-In . SVG Version: 2.1.0 Build 116)  -->
  <path d="M160.5,31c1.1-.1,1.8-.2,2.1-.2,2.1,0,5.6.1,10.4.3,2.5,0,4.3,0,5.2,0,1.4,0,4.3,0,8.7-.3l15.8-.7c4.2-.3,9-.4,14.5-.4,9.8,0,17.5,1.1,23.3,3.3,5.8,2.2,10.2,5.7,13.4,10.4,3.1,4.7,4.7,9.4,4.7,14.1,0,7.8-3.4,14.6-10.3,20.3-6.8,5.7-16,8.5-27.6,8.5s-5.9-.3-8.1-.8c-2.2-.5-4.7-1.5-7.5-3-1.2-.6-1.9-1.3-2.1-2,.2-.3.6-.6,1-.7.9,0,1.8.1,2.7.4,2.1.6,4.8.9,8,.9,4.9,0,9.6-1,13.9-2.9,4.4-1.9,7.7-4.7,9.9-8.3,2.2-3.6,3.4-7.4,3.4-11.4s-1.2-7.7-3.5-11.3c-2.4-3.7-5.5-6.6-9.3-8.8-2.2-1.2-5.5-2.3-10-3.1-4.5-.8-8-1.3-10.5-1.3-7.7,0-12.2.4-13.7,1.3v1c0,0,.2,8.5.2,8.5v1.5c-.2,1.3-.3,3.4-.3,6.2,0,10.2.2,16.5.6,19v4.2l1.2,34.2c0,.5,0,1.4-.2,2.8-.2,1.3-.2,2.5-.2,3.5,0,2.4.2,4.2.7,5.5,1.5.3,5.8,1.2,13,2.5,3.4.6,5.2,1,5.5,1.1.5.1.9.5,1.3,1-.2.7-.6,1.2-1,1.5-.4.2-1.2.3-2.4.3s-2.5-.1-5.2-.4c-5.3-.4-9.5-.7-12.6-.7l-16.4.5-9.8-.2c-.6,0-2.4,0-5.4.1v-1.9c0,0,12-1.9,12-1.9,2-.4,3.2-.9,3.6-1.3.6-.7.9-2.1.9-4.1s0-1.4,0-2.9c0-1,0-2.5,0-4.3,0-5.9-.3-18.4-.9-37.6-.2-9-.4-18.1-.4-27.4v-1.3c0-3.6-.7-5.9-2.1-6.8-2.3-1.6-8-3-17.2-4-.3-.5-.5-1-.5-1.3s.2-.9.6-1.4Z"/>
  <path d="M331.7,87l-37.4.2h-7.1c-2.9,0-5.8,0-8.8.3-.6,1.5-.8,2.5-.8,3.1v.7c0,0,0,.7,0,.7v3.7c0,3,1.1,6.8,3.5,11.2,2.4,4.4,5.8,7.8,10.3,10.1,4.4,2.3,10,3.6,16.6,3.7,3.5-.1,6.4-.5,8.5-1,2.1-.5,5.1-1.8,8.9-3.8l6.7-4.4.6,3c0,.4,0,.7,0,1.1-2.8,2.8-6.3,5.3-10.6,7.5-4.3,2.1-8.6,3.7-13,4.7-2.1.4-5.6.7-10.4.7s-8.8-.7-13-2.2c-6.3-2.2-11.3-5.7-15-10.6s-5.5-10.8-5.5-17.7.5-5,1.5-8.5c1-3.4,2.9-7.1,5.5-11,1.8-2.6,4-4.8,6.6-6.5,3.7-2.4,7-4.1,9.8-5,4-1.3,8.7-2,14.1-2s10.5.8,14.2,2.5c5,2.2,8.7,5.1,11.1,8.7,2.5,3.5,3.7,6.8,3.7,9.7v1ZM279.7,84.3h4.4c3.2,0,12.6-.4,28.3-1.2,2.5,0,4-.3,4.6-.6,1.1-.9,1.7-1.8,1.7-2.5,0-1.5-.6-3.3-1.9-5.3-1.2-2-3.2-3.5-5.7-4.6-2.6-1.1-5.6-1.6-9-1.6-7.2,0-13,2.2-17.3,6.5-3.4,3.3-5,6.4-5,9.3Z"/>
  <path d="M344.2,96.5c0-3.4.9-7,2.7-10.9,1.8-3.9,4.5-7.3,8.1-10.4,3.6-3.1,7.4-5.4,11.5-6.9,5.7-2.1,12.5-3.1,20.7-3.1,11.6,0,21.3,3.2,29.1,9.6,7.8,6.4,11.7,14.1,11.7,23.1s-4.1,15.1-12.3,21.4c-8.2,6.3-18.5,9.4-31,9.4s-15-1.6-21.8-4.9c-5.1-2.4-9.5-6.1-13.1-10.9-3.7-4.8-5.5-10.3-5.5-16.4ZM385.4,125.7c4.7,0,9.3-1,13.7-3.1,4.4-2,7.9-5.3,10.5-9.8,2.6-4.5,3.9-9.7,3.9-15.7s-1-8.4-3-13.6c-2-5.1-5.1-9-9.3-11.6-4.2-2.6-9.1-3.9-14.8-3.9s-8.3.8-12.6,2.3c-4.3,1.5-7.9,4.5-10.8,8.9-3,4.4-4.4,10.6-4.4,18.7s2.6,16,7.7,20.6c5.1,4.7,11.5,7,19.2,7Z"/>
  <path d="M437,165.7c0-.6,0-1.1,0-1.5s0-.8.2-1.3l9.4-1.5c1.5-.6,2.7-1.3,3.7-2.2.3-.9.5-1.8.5-2.7,0-7.7-.2-22.3-.7-43.9l-.3-27.4c-.1-4.3-.5-7.1-1-8.2-.3-.6-.8-1.1-1.4-1.4-1.6-.9-4.7-1.7-9.3-2.4l.6-2.3c6.7-2.3,11.2-4.1,13.5-5.4,2.3-1.3,4.4-3.1,6.5-5.4l1.1-.2c.4,0,1.1.1,1.9.4,0,3.1,0,5.2,0,6.2v8.2c4.7-2.8,9.5-4.9,14.4-6.3,5-1.4,10.1-2.1,15.5-2.1,9.6,0,17.6,2.7,24.2,8.1,6.6,5.4,9.9,12.4,9.9,20.9s-1.9,12-5.6,17.1c-3.7,5-8.8,8.8-15.3,11.3-6.5,2.5-13.1,3.7-19.6,3.7s-12-1.2-19.2-3.7c-1.2-.4-2.2-.7-3.2-1-.1,4-.2,7.6-.2,10.7,0,15.5.5,24.1,1.6,26,.6,1,2.3,1.6,5.2,1.8,5,.3,8.3.9,9.9,1.7.9.4,1.6,1.3,1.9,2.7h-9.2c0,.1-8.4,0-8.4,0h-14c0,0-12.1,0-12.1,0ZM461.4,80c-.1.7-.2,1.3-.2,1.9,0,17.8.2,27.8.7,30,.9,3.9,2.6,6.7,5.2,8.3,4,2.5,9.8,3.8,17.3,3.8s14.3-2.2,19.7-6.5c5.3-4.3,8-9.9,8-16.8s-2.8-14.9-8.5-19.7c-5.7-4.8-13.1-7.3-22.4-7.3s-7.5.5-10.8,1.5c-3.3,1-6.3,2.6-9,4.7Z"/>
  <path d="M537,33.8v-1.6c1.7-.4,3.7-.9,5.8-1.4,3.1-.8,7.7-2,13.9-3.7h4.4v4.1c0,41-.2,65.5-.5,73.4-.2,4.6-.3,7.1-.3,7.4,0,5.6.3,8.7.8,9.4.7.9,3,1.5,6.9,1.9,3.8.4,6.1.7,6.8,1,.5.2.7.5.7,1s-.1.9-.4,1.2-.8.3-1.5.3-3.7,0-9.8-.3l-12.2-.3-15.7.6c-1,0-1.7-.1-2.2-.5-.4-.3-.6-.6-.6-1.1s.2-.9.6-1.1c.4-.2,2.6-.6,6.7-1.2,4.1-.5,6.4-1,7-1.4.6-.4,1-1.2,1.2-2.5.2-1.8.4-6.9.4-15.2v-17.2c0,0,.2-17.8.2-17.8v-17.8c0,0,.2-8.8.2-8.8,0-1.7-.3-3-1-3.8-.7-.8-2.1-1.5-4.4-2.3-3.4-1.1-5.7-1.9-6.9-2.4Z"/>
  <path d="M649.7,87l-37.4.2h-7.1c-2.9,0-5.8,0-8.8.3-.6,1.5-.8,2.5-.8,3.1v.7c0,0,0,.7,0,.7v3.7c0,3,1.1,6.8,3.5,11.2,2.4,4.4,5.8,7.8,10.3,10.1,4.4,2.3,10,3.6,16.6,3.7,3.5-.1,6.4-.5,8.5-1,2.1-.5,5.1-1.8,8.9-3.8l6.7-4.4.6,3c0,.4,0,.7,0,1.1-2.8,2.8-6.3,5.3-10.6,7.5-4.3,2.1-8.6,3.7-13,4.7-2.1.4-5.6.7-10.4.7s-8.8-.7-13-2.2c-6.3-2.2-11.3-5.7-15-10.6s-5.5-10.8-5.5-17.7.5-5,1.5-8.5c1-3.4,2.9-7.1,5.5-11,1.8-2.6,4-4.8,6.6-6.5,3.7-2.4,7-4.1,9.8-5,4-1.3,8.7-2,14.1-2s10.5.8,14.2,2.5c5,2.2,8.7,5.1,11.1,8.7,2.5,3.5,3.7,6.8,3.7,9.7v1ZM597.7,84.3h4.4c3.2,0,12.6-.4,28.3-1.2,2.5,0,4-.3,4.6-.6,1.1-.9,1.7-1.8,1.7-2.5,0-1.5-.6-3.3-1.9-5.3-1.2-2-3.2-3.5-5.7-4.6-2.6-1.1-5.6-1.6-9-1.6-7.2,0-13,2.2-17.3,6.5-3.4,3.3-5,6.4-5,9.3Z"/>
  <path d="M665.4,66.2l-.4-3.5c4-1.5,7-3.1,9.3-4.6,2.2-1.5,4.5-4,7-7.4.9-1.2,1.3-2.4,1.3-3.7s-.5-2.8-1.5-3.8c-1-1-2-1.5-3-1.5h-5.9c-1.6.1-3.2-.5-4.6-1.7-1.5-1.2-2.2-2.6-2.2-4.2s.8-3.2,2.3-4.2c2.5-1.7,5-2.6,7.4-2.6,4.7,0,8.8,1.3,12.2,4,3.4,2.6,5.1,5.8,5.1,9.4,0,6-3.5,11.4-10.4,16.3-6.9,4.9-12.4,7.4-16.5,7.5Z"/>
  <path d="M696.2,107.6c2.3,4.7,4,7.8,5.2,9.2,2.4,2.8,5.2,5.1,8.5,6.6,3.3,1.6,6.9,2.4,10.7,2.4s7.1-1.2,10.5-3.7c2.5-1.8,3.7-4,3.7-6.4s-1.5-6.2-4.4-9c-2.9-2.7-8.5-5.3-16.6-7.8-8.2-2.5-13.7-5.1-16.5-7.9-2.8-2.8-4.2-6-4.2-9.6s1.1-6.4,3.4-9c2.3-2.6,5.5-4.6,9.5-5.9,4-1.3,7.8-2,11.2-2s8.4.3,11.9.8c3.5.5,6.5,1.4,9.1,2.5.5,2.5.9,6.3,1.2,11.2l.2,2.4c-.8,0-1.5,0-2.1,0h-1.3c-1.9-4.1-4.7-7.4-8.5-9.8-3.8-2.4-7.6-3.6-11.3-3.6s-6.7.9-9,2.7c-2.3,1.8-3.4,4.2-3.4,7.2s.9,4.2,2.8,6c1.9,1.7,6.2,3.7,13.1,6,6.9,2.2,11.9,4.3,15,6.2,3.1,1.9,5.5,4.3,6.9,7,1.5,2.7,2.2,5.4,2.2,7.9s-1.4,6.7-4.2,9.7c-2.8,3-6.4,5.1-10.6,6.3-4.3,1.2-8.1,1.8-11.4,1.8-7.9,0-15.2-1.2-21.8-3.5-.6-.4-1-1.1-1-2.2,0-.4,0-1.2-.2-2.2-1-6.7-1.5-10.7-1.5-12s.2-1,.5-1.2c.3-.2,1.1-.3,2.4-.3Z"/>
  <path d="M265,245.8c9-.8,14.1-1.4,15.3-1.8.8-.2,1.5-1,2.2-2.2v-.8c0-1.2.2-5.8.7-13.5.1-2.2.2-4.3.2-6.4l-.3-8.9.2-10.1v-18.8c0,0,0-13.5,0-13.5,0-5.7-.5-9.2-1.6-10.4-1.2-1.2-4.1-2.1-8.9-2.7-4.8-.5-7.4-.9-7.9-1.2-.5-.2-.7-.6-.7-1.2s0-.8.3-1.3c.6-.4,2.1-.7,4.3-.7.3,0,1.2,0,2.6-.2,1.4-.1,2.7-.2,4-.2h7.6l24.5-.2c13.9,0,23.6.8,29.1,2.5,5.6,1.6,10,4.4,13.3,8.3,3.3,3.9,4.9,8.3,4.9,13.1,0,9.2-6,16.2-18,21-2,.8-3.7,1.6-4.8,2.2,2.1,3.6,5.1,7.9,8.8,12.9l11.8,16.3c4.7,6,8,9.8,9.8,11.3,1.8,1.5,4,2.8,6.6,3.8s6.9,2,13,2.9c0,.5,0,.9,0,1.2s0,.7,0,1.1c-8.5,0-18.5.1-29.9.1s-1.9,0-3.4-.1c-4.4-6.8-9.6-14.3-15.6-22.4l-13.8-20.3c-1.9-2.1-3.4-3.4-4.6-3.9-1.2-.5-2.8-.8-4.8-.8h-7.9c0,0-2.6,0-2.6,0-.2,1.6-.3,4.9-.3,9.8v25.6c0,.9.2,2.3.7,4,.5.9,1.4,1.7,2.6,2.3,1.2.6,4.7,1.4,10.5,2.6l3.8.7c.5.5.7,1.2.7,2-1.7.2-2.9.4-3.5.4-5.6,0-9.5,0-11.8-.1-1.2,0-2.1,0-2.9,0h-12.7c0,.1-12.4,0-12.4,0-.6,0-3.4,0-8.5.2l-1.9-.3-.2-.7c0-.4.4-1,1.3-1.6ZM299.6,196.8c1.7,0,2.9,0,3.7,0,4.5,0,9.6-.4,15.5-1.3,4.1-.6,7.4-1.7,10-3.2,2.5-1.5,4.7-3.7,6.4-6.5,1.7-2.9,2.6-5.9,2.6-9s-1.3-7-4-10.8c-2.1-2.9-5.5-5.3-10.4-7.2-4.9-1.9-10.7-2.9-17.6-2.9s-3.9,0-6.5.2c-.2,2.6-.4,4.6-.4,6l.5,14v5.8c0,3.9,0,8.8.3,14.9Z"/>
  <path d="M384.4,194.9v-2.2c4.1-1,6.3-1.5,6.6-1.7,2.2-.8,4.6-2,7-3.7,2.5-1.7,4.5-3.5,6.2-5.6.7,0,1.3-.1,1.8-.1h1.1c.2,2.5.4,4.2.4,5.3s0,1.4-.2,3.4v25.5c0,0-.2,22.8-.2,22.8,0,1.8.3,3.1,1.1,3.9.8.7,3.2,1.5,7.2,2.4,2.5.5,4.3,1,5.6,1.4.2.3.3.6.3.9s-.2.7-.5,1.1c-2.4,0-5.5-.2-9.3-.4-5.2-.3-8.6-.5-10.3-.5s-5.8.1-14.9.4c-1.9,0-3.7.2-5.4.4-.3,0-.8,0-1.5-.2-.3-.3-.5-.6-.5-.9,0-.7.6-1.2,1.8-1.6.2,0,3.4-.7,9.5-1.7,2-.3,3.3-.8,3.9-1.5,1.1-1,1.6-2.7,1.6-5,.1-3.8.2-14.4.2-31.6s-.2-5.6-.6-6.4c-.3-.6-1.1-1.3-2.5-2.1-1.3-.8-4.2-1.6-8.5-2.4ZM392.2,156.1c0-1.6.8-3.1,2.4-4.3,1.6-1.2,3.5-1.8,5.7-1.8s4.3.7,6.1,2c1.7,1.3,2.6,2.8,2.6,4.3s-.9,3-2.6,4.4c-1.7,1.4-3.8,2.1-6.1,2.1s-4.2-.6-5.8-1.9c-1.6-1.2-2.3-2.9-2.3-4.9Z"/>
  <path d="M419.1,188.6c6.9,0,12.9.3,18.1.6,3.7,0,6.3,0,8-.1,1.2,0,1.9,0,2.2,0h10.4c1.4.3,2.6.4,3.4.4.4.1.7.4,1,.8,0,.5-.2,1-.6,1.6-1.1.2-2.1.4-3.3.4-4.7.4-8.6,1-11.7,1.7-.4.2-.7.5-.7.7,0,.5.3,1.3.9,2.3.1.2.4.8.8,1.8l9.3,18c4.2,8.2,8,15.2,11.6,20.8,2.4-3.7,4.6-7.5,6.7-11.5,2-3.9,5-10.2,9-18.7,1.1-2.4,2.2-5.4,3.2-8.9.2-.7.3-1.3.3-1.8s-.4-1.3-1.3-2c-.8-.7-2.3-1.3-4.2-1.8-.4,0-3.3-.4-8.5-1.1-.4-.2-.8-.5-1.2-.8v-.6c0-.2,0-.6,0-1,1.5-.1,2.6-.2,3.3-.2h11c.7,0,2.5,0,5.3-.1,9.9,0,15.8,0,17.8.2.4.1.7.4,1,.9,0,.4-.2.9-.6,1.5l-2.9.6c-.7,0-1.3,0-1.8.1-5.3.4-8.6,1-9.9,1.8-.9.5-2.4,3.1-4.4,7.7-.9,2.2-2.3,5.1-4.1,8.5l-4.8,9.4c-.7,1.3-1.4,2.8-2.2,4.4l-14.4,26.8h-2.9c-.6-1.2-1.2-2.5-2-3.7l-7.1-12.1-16.7-31.4c-3.4-6.1-5.4-9.4-6.1-9.9-.7-.5-4.7-1.5-11.9-3.1-.4-.8-.6-1.4-.6-1.7v-.7Z"/>
  <path d="M579.8,208.6l-37.4.2h-7.1c-2.9,0-5.8,0-8.8.3-.6,1.5-.8,2.5-.8,3.1v.7c0,0,0,.7,0,.7v3.7c0,3,1.1,6.8,3.5,11.2,2.4,4.4,5.8,7.8,10.3,10.1,4.4,2.3,10,3.6,16.6,3.7,3.5-.1,6.4-.5,8.5-1,2.1-.5,5.1-1.8,8.9-3.8l6.7-4.4.6,3c0,.3,0,.7,0,1.1-2.8,2.8-6.3,5.3-10.6,7.5-4.3,2.1-8.6,3.7-13,4.7-2.1.4-5.6.7-10.4.7s-8.8-.7-13-2.2c-6.3-2.2-11.3-5.7-15-10.6-3.6-4.9-5.5-10.8-5.5-17.7s.5-5,1.5-8.5c1-3.4,2.9-7.1,5.5-11,1.8-2.6,4-4.8,6.6-6.5,3.7-2.4,7-4.1,9.8-5,4-1.3,8.7-2,14.1-2s10.5.8,14.2,2.5c5,2.2,8.7,5.1,11.1,8.7,2.5,3.5,3.7,6.8,3.7,9.7v1ZM527.8,205.9h4.4c3.2,0,12.6-.4,28.3-1.2,2.5,0,4-.3,4.6-.6,1.1-.9,1.7-1.8,1.7-2.5,0-1.5-.6-3.3-1.9-5.3-1.2-2-3.2-3.5-5.7-4.6-2.6-1.1-5.6-1.6-9-1.6-7.2,0-13,2.2-17.3,6.5-3.4,3.3-5,6.4-5,9.3Z"/>
  <path d="M589.3,248.3l-.4-1c0-.3.3-.9.8-1.6l5.5-.9,7.7-1.1c.6-.2,1.1-.6,1.3-1,.4-.6.6-2.6.6-5.8,0-16.9-.1-26.7-.4-29.3-.2-2.6-.8-4.3-1.7-5-.9-.7-3.1-1.2-6.7-1.6-2.1-.2-3.8-.6-5-1l.4-2.3c6.5-2.2,10.9-4,13.1-5.6,3.1-2.3,5.7-5.2,7.9-8.9h3.2c.4,2.6.6,8.1.6,16.7v1.3c0,.3,0,.8,0,1.4,2.4-3.4,5.3-6.6,8.9-9.5l2.1-1.7c.9-.8,1.7-1.4,2.5-1.9,4.3-2.1,7.6-3.1,9.7-3.1s5,.7,6.7,2.2c1.7,1.5,2.6,3.3,2.6,5.4s-.6,3-1.9,4c-1.7,1.2-3.6,1.9-5.8,1.9s-3-.4-5.9-1.3c-2.9-.8-4.8-1.3-5.8-1.3-1.7,0-3,.2-3.6.7-1.7,1.1-3.9,3.3-6.3,6.7-1.9,2.5-2.9,4.9-2.9,7l.5,12.4.2,14.9c.2,1.7.4,2.8.7,3.3.2.4.9.8,1.9,1.3,6.7.5,10.7.8,11.9,1,.9,0,1.5.1,2,.1,2.7,0,4.5.4,5.6.9.6.2.8.6.8,1.1s-.2.7-.7,1.2h-10.3c0-.1-3.9-.2-3.9-.2h-5.7c0,0-9.5,0-9.5,0l-5.1.2-15.7.2Z"/>
  <path d="M278,273.7c.5,3.3.7,5.2.7,5.7l-.4,6.7c-.1,2.8-.3,4.7-.5,5.5-.6.2-1,.3-1.4.3l-.8-.2c-2-7-5.4-12.1-10.1-15.3-4.8-3.2-10.5-4.8-17.4-4.8s-12.9,1.6-17.4,4.8c-4.5,3.2-6.8,6.9-6.8,11.2s1.6,6.2,4.8,8.9c3.2,2.7,11.3,6.7,24.3,12.1,9.9,4.1,17.1,7.5,21.3,10.1,4.3,2.6,7.5,5.7,9.7,9.1,2.2,3.4,3.3,7.3,3.3,11.5s-1.7,10.4-5.2,15.1c-3.4,4.7-8.1,8.2-13.9,10.6-5.8,2.4-13.6,3.6-23.2,3.6s-16.4-1.1-24.1-3.2c-4.5-1.3-7.3-2.3-8.3-3.1-1-.8-1.5-1.6-1.5-2.5s0-1.2.2-2.1c.9-5.9,1.3-10.7,1.4-14.5.1-2.3.3-3.7.7-4.1.2-.3.7-.5,1.4-.5s1,.2,1.4.5c.3.3.6.9.7,1.8.7,6.1,4.2,11.6,10.6,16.5,6.3,4.8,13.5,7.3,21.5,7.3s9.4-.8,13.6-2.5c4.1-1.6,7.4-4,9.7-7.2,2.3-3.1,3.5-6.2,3.5-9.1s-1.8-7.7-5.3-11.1c-3.5-3.3-10.7-7.3-21.3-11.7-10.7-4.5-17.6-7.7-20.9-9.8-5.2-3.3-9.1-6.9-11.7-10.6-1.9-2.9-2.9-6.3-2.9-10.1,0-6.9,3.4-12.8,10.3-17.6,6.8-4.8,16-7.2,27.5-7.2s11.8.6,16.4,1.7c3.4.9,6.8,2.4,10.3,4.4Z"/>
  <path d="M322,292.1h2.9c0,0,.4,7.2.4,7.2l-.2,9.2c1.2,0,1.9,0,2.2,0,1.6,0,4.7,0,9.2-.3,2.9-.1,5.7-.2,8.4-.2s3.1,0,5.6,0c.1,1,.2,1.8.2,2.4s-.2,1.7-.6,3.1h-1.6l-14.4.4-7.2.2h-1.7c-.5,1.4-.7,2.8-.7,4.5l.3,11.2-.2,19.8c0,5.2.8,8.6,2.5,10.3,1.6,1.7,4,2.6,7.3,2.6s4.7-.4,9.1-1.2c1.4-.2,3.2-1.1,5.5-2.5h.8c.6,0,1,.1,1.4.4.3.3.5.6.5,1.1v.5c-2.8,2.3-5.8,4.1-9.3,5.1-3.4,1.1-8,1.6-13.7,1.6s-7.4-.7-10-2.2c-2.6-1.5-4.3-3.3-5.1-5.3-.7-2-1.1-6.5-1.1-13.4l.4-16.8v-8.1c0,0,0-3,0-3,0-1.4,0-2.8-.2-4.2h-1.6c0,0-7.6.1-7.6.1h-.7c-.7,0-1.2,0-1.5-.3-.3-.2-.5-.5-.5-.9,0-.6.2-1.1.7-1.5.5-.4,1.9-1,4.2-1.8,1.6-.5,3.5-1.6,5.6-3.1,2.1-1.5,4-3.2,5.5-5.1.7-1,1.8-2.9,3.2-5.7,1-2,1.7-3.5,2.2-4.3Z"/>
  <path d="M357.8,336c0-3.4.9-7,2.7-10.9,1.8-3.9,4.5-7.3,8.1-10.4,3.6-3.1,7.4-5.4,11.5-6.9,5.7-2.1,12.5-3.1,20.7-3.1,11.6,0,21.3,3.2,29.1,9.6,7.8,6.4,11.7,14.1,11.7,23.1s-4.1,15.1-12.3,21.4c-8.2,6.3-18.5,9.4-31,9.4s-15-1.6-21.8-4.9c-5.1-2.4-9.5-6.1-13.1-10.9-3.7-4.8-5.5-10.3-5.5-16.4ZM399,365.2c4.7,0,9.3-1,13.7-3.1,4.4-2,7.9-5.3,10.5-9.8,2.6-4.5,3.9-9.7,3.9-15.7s-1-8.4-3-13.6c-2-5.1-5.1-9-9.3-11.6-4.2-2.6-9.1-3.9-14.8-3.9s-8.3.8-12.6,2.3c-4.3,1.5-7.9,4.5-10.8,8.9-3,4.4-4.4,10.6-4.4,18.7s2.6,16,7.7,20.6c5.1,4.7,11.5,7,19.2,7Z"/>
  <path d="M452.2,366.3l-.4-1c0-.3.3-.9.8-1.6l5.5-.9,7.7-1.1c.6-.2,1.1-.6,1.3-1,.4-.6.6-2.6.6-5.8,0-16.9-.1-26.7-.4-29.3s-.8-4.3-1.7-5c-.9-.7-3.1-1.2-6.7-1.6-2.1-.2-3.8-.6-5-1l.4-2.3c6.5-2.2,10.9-4,13.1-5.6,3.1-2.3,5.7-5.2,7.9-8.9h3.2c.4,2.6.6,8.1.6,16.7v1.3c0,.3,0,.8,0,1.4,2.4-3.4,5.3-6.6,8.9-9.5l2.1-1.7c.9-.8,1.7-1.4,2.5-1.9,4.3-2.1,7.6-3.1,9.7-3.1s5,.7,6.7,2.2c1.7,1.5,2.6,3.3,2.6,5.4s-.6,3-1.9,4c-1.7,1.2-3.6,1.9-5.8,1.9s-3-.4-5.9-1.3c-2.9-.8-4.8-1.3-5.8-1.3-1.7,0-3,.2-3.6.7-1.7,1.1-3.9,3.3-6.3,6.7-1.9,2.5-2.9,4.9-2.9,7l.5,12.4.2,14.9c.2,1.7.4,2.8.7,3.3.2.4.9.8,1.9,1.3,6.7.5,10.7.8,11.9,1,.9,0,1.5.1,2,.1,2.7,0,4.5.4,5.6.9.6.2.8.6.8,1.1s-.2.7-.7,1.2h-10.3c0-.1-3.9-.2-3.9-.2h-5.7c0,0-9.5,0-9.5,0l-5.1.2-15.7.2Z"/>
  <path d="M517.5,312.9v-2.2c4.1-1,6.3-1.5,6.6-1.7,2.2-.8,4.6-2,7-3.7,2.5-1.7,4.5-3.5,6.2-5.6.7,0,1.3-.1,1.8-.1h1.1c.2,2.5.4,4.2.4,5.3s0,1.4-.2,3.4v25.5c0,0-.2,22.8-.2,22.8,0,1.8.3,3.1,1.1,3.9.8.7,3.2,1.5,7.2,2.4,2.5.5,4.3,1,5.6,1.4.2.3.3.6.3.9s-.2.7-.5,1.1c-2.4,0-5.5-.2-9.3-.4-5.2-.3-8.6-.5-10.3-.5s-5.8.1-14.9.4c-1.9,0-3.7.2-5.4.4-.3,0-.8,0-1.5-.2-.3-.3-.5-.6-.5-.9,0-.7.6-1.2,1.8-1.6.2,0,3.4-.7,9.5-1.7,2-.3,3.3-.8,3.9-1.5,1.1-1,1.6-2.7,1.6-5,.1-3.8.2-14.4.2-31.6s-.2-5.6-.6-6.4c-.3-.6-1.1-1.3-2.5-2.1-1.3-.8-4.2-1.6-8.5-2.4ZM525.3,274.1c0-1.6.8-3.1,2.4-4.3,1.6-1.2,3.5-1.8,5.7-1.8s4.3.7,6.1,2c1.7,1.3,2.6,2.8,2.6,4.3s-.9,3-2.6,4.4c-1.7,1.4-3.8,2.1-6.1,2.1s-4.2-.6-5.8-1.9c-1.6-1.2-2.3-2.9-2.3-4.9Z"/>
  <path d="M629.6,326.6l-37.4.2h-7.1c-2.9,0-5.8,0-8.8.3-.6,1.5-.8,2.5-.8,3.1v.7c0,0,0,.7,0,.7v3.7c0,3,1.1,6.8,3.5,11.2,2.4,4.4,5.8,7.8,10.3,10.1,4.4,2.3,10,3.6,16.6,3.7,3.5-.1,6.4-.5,8.5-1,2.1-.5,5.1-1.8,8.9-3.8l6.7-4.4.6,3c0,.3,0,.7,0,1.1-2.8,2.8-6.3,5.3-10.6,7.5-4.3,2.1-8.6,3.7-13,4.7-2.1.4-5.6.7-10.4.7s-8.8-.7-13-2.2c-6.3-2.2-11.3-5.7-15-10.6-3.6-4.9-5.5-10.8-5.5-17.7s.5-5,1.5-8.5c1-3.4,2.9-7.1,5.5-11,1.8-2.6,4-4.8,6.6-6.5,3.7-2.4,7-4.1,9.8-5,4-1.3,8.7-2,14.1-2s10.5.8,14.2,2.5c5,2.2,8.7,5.1,11.1,8.7,2.5,3.5,3.7,6.8,3.7,9.7v1ZM577.6,323.9h4.4c3.2,0,12.6-.4,28.3-1.2,2.5,0,4-.3,4.6-.6,1.1-.9,1.7-1.8,1.7-2.5,0-1.5-.6-3.3-1.9-5.3-1.2-2-3.2-3.5-5.7-4.6-2.6-1.1-5.6-1.6-9-1.6-7.2,0-13,2.2-17.3,6.5-3.4,3.3-5,6.4-5,9.3Z"/>
  <path d="M648.7,347.1c2.3,4.7,4,7.8,5.2,9.2,2.4,2.8,5.2,5.1,8.5,6.6,3.3,1.6,6.9,2.4,10.7,2.4s7.1-1.2,10.5-3.7c2.5-1.8,3.7-4,3.7-6.4s-1.5-6.2-4.4-9c-2.9-2.7-8.5-5.3-16.6-7.8-8.2-2.5-13.7-5.1-16.5-7.9s-4.2-6-4.2-9.6,1.1-6.4,3.4-9c2.3-2.6,5.5-4.6,9.5-5.9,4-1.3,7.8-2,11.2-2s8.4.3,11.9.8c3.5.6,6.5,1.4,9.1,2.5.5,2.5.9,6.3,1.2,11.2l.2,2.4c-.8,0-1.5,0-2.1,0h-1.3c-1.9-4.1-4.7-7.4-8.5-9.8-3.8-2.4-7.6-3.6-11.3-3.6s-6.7.9-9,2.7c-2.3,1.8-3.4,4.2-3.4,7.2s.9,4.2,2.8,6c1.9,1.7,6.2,3.7,13.1,6,6.9,2.2,11.9,4.3,15,6.2,3.1,1.9,5.5,4.3,6.9,7,1.5,2.7,2.2,5.4,2.2,7.9s-1.4,6.7-4.2,9.7c-2.8,3-6.4,5.1-10.6,6.3-4.3,1.2-8.1,1.8-11.4,1.8-7.9,0-15.2-1.2-21.8-3.5-.6-.4-1-1.1-1-2.2,0-.4,0-1.2-.2-2.2-1-6.7-1.5-10.7-1.5-12s.2-1,.5-1.2c.3-.2,1.1-.3,2.4-.3Z"/>
</svg>